<?xml version="1.0" encoding="UTF-8"?>
<svg id="Layer_1" data-name="Layer 1" xmlns="http://www.w3.org/2000/svg" xmlns:xlink="http://www.w3.org/1999/xlink" viewBox="0 0 50.4 50.4">
  <defs>
    <style>
      .cls-1 {
        fill: url(#linear-gradient-2);
      }

      .cls-2 {
        fill: #fff;
      }

      .cls-3 {
        fill: url(#linear-gradient);
      }
    </style>
    <linearGradient id="linear-gradient" x1="2.87" y1="24.04" x2="8.85" y2="24.04" gradientUnits="userSpaceOnUse">
      <stop offset="0" stop-color="#2563eb"/>
      <stop offset=".17" stop-color="#3357e7"/>
      <stop offset=".5" stop-color="#5838de"/>
      <stop offset=".66" stop-color="#6d28d9"/>
    </linearGradient>
    <linearGradient id="linear-gradient-2" x1="11.05" y1="23.76" x2="46.89" y2="23.76" gradientUnits="userSpaceOnUse">
      <stop offset="0" stop-color="#2563eb"/>
      <stop offset=".81" stop-color="#6d28d9"/>
    </linearGradient>
  </defs>
  <path class="cls-3" d="M8.7,24.85c-.34-1.14-1.29-2.21-2.26-2.84-.07-.05-.16-.09-.21-.14-.12-.13-.3-.75-.35-.95l-.27.58c-.78-.26-1.84-.5-2.42.26-.69.89-.11,2.15.41,2.98.06.1.32.44.36.53.05.12.08.35.14.52.28.78.98,1.21,1.8,1.23.13,0,.32-.03.44-.02.16.02.37.11.58.13,1.71.19,2.21-.81,1.78-2.29ZM5.49,21.69l-1.49,3.31c-.54-.81-1.18-1.92-.83-2.87.01-.03.03-.06.04-.09.01-.03.03-.06.04-.08,0-.01.02-.03.03-.04,0-.01.02-.02.03-.04,0-.01.02-.02.03-.04s.02-.02.03-.03c0-.01.02-.02.03-.03.01-.01.02-.02.03-.03.02-.02.05-.04.08-.06.01-.01.03-.02.04-.03.01,0,.03-.02.04-.03.54-.33,1.38-.21,1.91.03l-.02.04ZM6.37,22.18c.11.07.3.21.4.3,1,.84,1.98,2.19,1.85,3.56-.1.97-1.26,1.1-2.02.84l.44-.29c1.56-1.38-.08-3.06-.68-4.4v-.02s.01.01.01.01Z"/>
  <g>
    <g>
      <path class="cls-2" d="M11.05,21.43h1.92c1.15,0,2.09.4,2.09,1.69s-.94,1.78-2.09,1.78h-.7v1.95h-1.23v-5.41ZM12.87,23.92c.64,0,.99-.28.99-.81s-.35-.71-.99-.71h-.6v1.52h.6ZM13.59,23.79l1.73,3.05h-1.37l-1.2-2.27.85-.78Z"/>
      <path class="cls-2" d="M15.54,25.7c0-.92.76-1.39,2.71-1.51-.04-.37-.32-.59-.87-.59-.4,0-.79.15-1.26.39l-.44-.8c.57-.33,1.23-.56,1.93-.56,1.16,0,1.86.6,1.86,1.86v2.35h-1l-.09-.46h-.03c-.42.31-.93.56-1.46.56-.83,0-1.35-.55-1.35-1.24ZM18.25,25.6v-.67c-1.21.06-1.54.32-1.54.67,0,.26.22.39.57.39.37,0,.68-.17.97-.39Z"/>
      <path class="cls-2" d="M21.9,23.68h-1.66v-.96h2.88v4.12h-1.22v-3.16ZM21.65,21.33c0-.45.34-.76.81-.76s.81.31.81.76-.34.75-.81.75-.81-.3-.81-.75Z"/>
      <path class="cls-2" d="M24.76,22.72h1l.09.55h.03c.36-.35.81-.65,1.42-.65.93,0,1.34.64,1.34,1.67v2.54h-1.22v-2.39c0-.55-.16-.79-.6-.79-.33,0-.55.15-.83.43v2.75h-1.22v-4.12Z"/>
      <path class="cls-2" d="M30.17,25.13v-1.45h-1.04v-.91l1.09-.05.16-1.26h1.01v1.26h1.74v.96h-1.74v1.44c0,.63.27.86.87.86.31,0,.57-.06.81-.15l.22.88c-.37.11-.8.22-1.35.22-1.31,0-1.78-.73-1.78-1.81Z"/>
      <path class="cls-2" d="M33.88,21.02h1.22v1.42l-.07.79h.03c.31-.32.75-.62,1.37-.62.92,0,1.33.64,1.33,1.67v2.54h-1.22v-2.39c0-.55-.16-.79-.6-.79-.33,0-.55.15-.83.43v2.75h-1.22v-5.81Z"/>
      <path class="cls-2" d="M38.23,24.78c0-1.37,1.01-2.16,2.1-2.16s2.1.79,2.1,2.16-1.01,2.16-2.1,2.16-2.1-.79-2.1-2.16ZM41.18,24.78c0-.71-.29-1.17-.85-1.17s-.85.46-.85,1.17.29,1.17.85,1.17.85-.46.85-1.17Z"/>
      <path class="cls-2" d="M42.84,26.31l.52-.76c.51.31,1.07.49,1.66.49.45,0,.65-.15.65-.35,0-.23-.2-.31-1.01-.48-1.12-.24-1.57-.65-1.57-1.29,0-.77.72-1.29,1.89-1.29.73,0,1.35.29,1.78.56l-.55.73c-.42-.25-.89-.39-1.35-.39-.38,0-.57.14-.57.33,0,.23.25.28.95.44,1.27.28,1.62.65,1.62,1.32,0,.75-.71,1.33-2.03,1.33-.73,0-1.49-.28-2.01-.63Z"/>
    </g>
    <g>
      <path class="cls-1" d="M11.05,21.43h1.92c1.15,0,2.09.4,2.09,1.69s-.94,1.78-2.09,1.78h-.7v1.95h-1.23v-5.41ZM12.87,23.92c.64,0,.99-.28.99-.81s-.35-.71-.99-.71h-.6v1.52h.6ZM13.59,23.79l1.73,3.05h-1.37l-1.2-2.27.85-.78Z"/>
      <path class="cls-1" d="M15.54,25.7c0-.92.76-1.39,2.71-1.51-.04-.37-.32-.59-.87-.59-.4,0-.79.15-1.26.39l-.44-.8c.57-.33,1.23-.56,1.93-.56,1.16,0,1.86.6,1.86,1.86v2.35h-1l-.09-.46h-.03c-.42.31-.93.56-1.46.56-.83,0-1.35-.55-1.35-1.24ZM18.25,25.6v-.67c-1.21.06-1.54.32-1.54.67,0,.26.22.39.57.39.37,0,.68-.17.97-.39Z"/>
      <path class="cls-1" d="M21.9,23.68h-1.66v-.96h2.88v4.12h-1.22v-3.16ZM21.65,21.33c0-.45.34-.76.81-.76s.81.31.81.76-.34.75-.81.75-.81-.3-.81-.75Z"/>
      <path class="cls-1" d="M24.76,22.72h1l.09.55h.03c.36-.35.81-.65,1.42-.65.93,0,1.34.64,1.34,1.67v2.54h-1.22v-2.39c0-.55-.16-.79-.6-.79-.33,0-.55.15-.83.43v2.75h-1.22v-4.12Z"/>
      <path class="cls-1" d="M30.17,25.13v-1.45h-1.04v-.91l1.09-.05.16-1.26h1.01v1.26h1.74v.96h-1.74v1.44c0,.63.27.86.87.86.31,0,.57-.06.81-.15l.22.88c-.37.11-.8.22-1.35.22-1.31,0-1.78-.73-1.78-1.81Z"/>
      <path class="cls-1" d="M33.88,21.02h1.22v1.42l-.07.79h.03c.31-.32.75-.62,1.37-.62.92,0,1.33.64,1.33,1.67v2.54h-1.22v-2.39c0-.55-.16-.79-.6-.79-.33,0-.55.15-.83.43v2.75h-1.22v-5.81Z"/>
      <path class="cls-1" d="M38.23,24.78c0-1.37,1.01-2.16,2.1-2.16s2.1.79,2.1,2.16-1.01,2.16-2.1,2.16-2.1-.79-2.1-2.16ZM41.18,24.78c0-.71-.29-1.17-.85-1.17s-.85.46-.85,1.17.29,1.17.85,1.17.85-.46.85-1.17Z"/>
      <path class="cls-1" d="M42.84,26.31l.52-.76c.51.31,1.07.49,1.66.49.45,0,.65-.15.65-.35,0-.23-.2-.31-1.01-.48-1.12-.24-1.57-.65-1.57-1.29,0-.77.72-1.29,1.89-1.29.73,0,1.35.29,1.78.56l-.55.73c-.42-.25-.89-.39-1.35-.39-.38,0-.57.14-.57.33,0,.23.25.28.95.44,1.27.28,1.62.65,1.62,1.32,0,.75-.71,1.33-2.03,1.33-.73,0-1.49-.28-2.01-.63Z"/>
    </g>
  </g>
</svg>